<mxfile host="65bd71144e">
    <diagram id="OKvoIwqWP_rk-U-jqHxk" name="第 1 页">
        <mxGraphModel dx="589" dy="509" grid="1" gridSize="10" guides="1" tooltips="1" connect="1" arrows="1" fold="1" page="1" pageScale="1" pageWidth="827" pageHeight="1169" math="0" shadow="0">
            <root>
                <mxCell id="0"/>
                <mxCell id="1" parent="0"/>
                <mxCell id="34" value="" style="shape=umlLifeline;participant=umlActor;perimeter=lifelinePerimeter;whiteSpace=wrap;html=1;container=1;collapsible=0;recursiveResize=0;verticalAlign=top;spacingTop=36;outlineConnect=0;" vertex="1" parent="1">
                    <mxGeometry x="30" y="40" width="20" height="240" as="geometry"/>
                </mxCell>
                <mxCell id="35" value="" style="html=1;points=[];perimeter=orthogonalPerimeter;" vertex="1" parent="34">
                    <mxGeometry x="5" y="70" width="10" height="150" as="geometry"/>
                </mxCell>
                <mxCell id="36" value="FastAPI" style="shape=umlLifeline;perimeter=lifelinePerimeter;whiteSpace=wrap;html=1;container=1;collapsible=0;recursiveResize=0;outlineConnect=0;" vertex="1" parent="1">
                    <mxGeometry x="150" y="40" width="100" height="240" as="geometry"/>
                </mxCell>
                <mxCell id="37" value="" style="html=1;points=[];perimeter=orthogonalPerimeter;" vertex="1" parent="36">
                    <mxGeometry x="45" y="80" width="10" height="130" as="geometry"/>
                </mxCell>
                <mxCell id="38" value="ProductCurrencyHelperServices" style="shape=umlLifeline;perimeter=lifelinePerimeter;whiteSpace=wrap;html=1;container=1;collapsible=0;recursiveResize=0;outlineConnect=0;" vertex="1" parent="1">
                    <mxGeometry x="300" y="40" width="200" height="240" as="geometry"/>
                </mxCell>
                <mxCell id="39" value="" style="html=1;points=[];perimeter=orthogonalPerimeter;" vertex="1" parent="38">
                    <mxGeometry x="95" y="90" width="10" height="110" as="geometry"/>
                </mxCell>
                <mxCell id="40" value="check_token(token)" style="html=1;verticalAlign=bottom;endArrow=block;" edge="1" parent="1" source="37" target="39">
                    <mxGeometry width="80" relative="1" as="geometry">
                        <mxPoint x="200" y="140" as="sourcePoint"/>
                        <mxPoint x="280" y="140" as="targetPoint"/>
                        <Array as="points">
                            <mxPoint x="220" y="130"/>
                        </Array>
                    </mxGeometry>
                </mxCell>
                <mxCell id="41" value="TokenRecord" style="shape=umlLifeline;perimeter=lifelinePerimeter;whiteSpace=wrap;html=1;container=1;collapsible=0;recursiveResize=0;outlineConnect=0;" vertex="1" parent="1">
                    <mxGeometry x="650" y="40" width="100" height="240" as="geometry"/>
                </mxCell>
                <mxCell id="42" value="" style="html=1;points=[];perimeter=orthogonalPerimeter;" vertex="1" parent="41">
                    <mxGeometry x="45" y="150" width="10" height="40" as="geometry"/>
                </mxCell>
                <mxCell id="43" value="get_record()" style="html=1;verticalAlign=bottom;endArrow=block;" edge="1" parent="1" source="39" target="53">
                    <mxGeometry width="80" relative="1" as="geometry">
                        <mxPoint x="440" y="230" as="sourcePoint"/>
                        <mxPoint x="630" y="230" as="targetPoint"/>
                        <Array as="points">
                            <mxPoint x="460" y="140"/>
                        </Array>
                    </mxGeometry>
                </mxCell>
                <mxCell id="44" value="Redis" style="shape=umlLifeline;perimeter=lifelinePerimeter;whiteSpace=wrap;html=1;container=1;collapsible=0;recursiveResize=0;outlineConnect=0;" vertex="1" parent="1">
                    <mxGeometry x="770" y="40" width="100" height="240" as="geometry"/>
                </mxCell>
                <mxCell id="45" value="" style="html=1;points=[];perimeter=orthogonalPerimeter;" vertex="1" parent="44">
                    <mxGeometry x="45" y="160" width="10" height="20" as="geometry"/>
                </mxCell>
                <mxCell id="46" value="request token list" style="html=1;verticalAlign=bottom;endArrow=block;" edge="1" parent="1" source="42" target="45">
                    <mxGeometry width="80" relative="1" as="geometry">
                        <mxPoint x="720" y="130" as="sourcePoint"/>
                        <mxPoint x="800" y="130" as="targetPoint"/>
                        <Array as="points">
                            <mxPoint x="770" y="200"/>
                        </Array>
                    </mxGeometry>
                </mxCell>
                <mxCell id="47" value="return token list" style="html=1;verticalAlign=bottom;endArrow=open;dashed=1;endSize=8;" edge="1" parent="1" source="45" target="42">
                    <mxGeometry relative="1" as="geometry">
                        <mxPoint x="820" y="220" as="sourcePoint"/>
                        <mxPoint x="740" y="220" as="targetPoint"/>
                        <Array as="points">
                            <mxPoint x="760" y="220"/>
                        </Array>
                    </mxGeometry>
                </mxCell>
                <mxCell id="48" value="return token record" style="html=1;verticalAlign=bottom;endArrow=open;dashed=1;endSize=8;" edge="1" parent="1" source="53" target="39">
                    <mxGeometry relative="1" as="geometry">
                        <mxPoint x="550" y="200" as="sourcePoint"/>
                        <mxPoint x="470" y="200" as="targetPoint"/>
                        <Array as="points">
                            <mxPoint x="530" y="160"/>
                        </Array>
                    </mxGeometry>
                </mxCell>
                <mxCell id="49" value="return true" style="html=1;verticalAlign=bottom;endArrow=open;dashed=1;endSize=8;" edge="1" parent="1" source="39" target="37">
                    <mxGeometry relative="1" as="geometry">
                        <mxPoint x="360" y="200" as="sourcePoint"/>
                        <mxPoint x="280" y="200" as="targetPoint"/>
                        <Array as="points">
                            <mxPoint x="300" y="240"/>
                        </Array>
                    </mxGeometry>
                </mxCell>
                <mxCell id="50" value="access with token" style="html=1;verticalAlign=bottom;endArrow=block;" edge="1" parent="1" source="35" target="37">
                    <mxGeometry width="80" relative="1" as="geometry">
                        <mxPoint x="70" y="130" as="sourcePoint"/>
                        <mxPoint x="150" y="130" as="targetPoint"/>
                        <Array as="points">
                            <mxPoint x="180" y="120"/>
                        </Array>
                    </mxGeometry>
                </mxCell>
                <mxCell id="51" value="return 200, session id" style="html=1;verticalAlign=bottom;endArrow=open;dashed=1;endSize=8;" edge="1" parent="1" source="37" target="35">
                    <mxGeometry relative="1" as="geometry">
                        <mxPoint x="240" y="200" as="sourcePoint"/>
                        <mxPoint x="80" y="200" as="targetPoint"/>
                        <Array as="points">
                            <mxPoint x="180" y="250"/>
                        </Array>
                    </mxGeometry>
                </mxCell>
                <mxCell id="52" value="RecordFactory" style="shape=umlLifeline;perimeter=lifelinePerimeter;whiteSpace=wrap;html=1;container=1;collapsible=0;recursiveResize=0;outlineConnect=0;" vertex="1" parent="1">
                    <mxGeometry x="530" y="40" width="100" height="240" as="geometry"/>
                </mxCell>
                <mxCell id="53" value="" style="html=1;points=[];perimeter=orthogonalPerimeter;" vertex="1" parent="52">
                    <mxGeometry x="45" y="100" width="10" height="20" as="geometry"/>
                </mxCell>
                <mxCell id="54" value="get_list()" style="html=1;verticalAlign=bottom;endArrow=block;" edge="1" parent="1" source="39" target="42">
                    <mxGeometry width="80" relative="1" as="geometry">
                        <mxPoint x="415" y="150" as="sourcePoint"/>
                        <mxPoint x="585" y="150" as="targetPoint"/>
                        <Array as="points">
                            <mxPoint x="610" y="190"/>
                        </Array>
                    </mxGeometry>
                </mxCell>
                <mxCell id="55" value="return token list" style="html=1;verticalAlign=bottom;endArrow=open;dashed=1;endSize=8;" edge="1" parent="1" source="42" target="39">
                    <mxGeometry relative="1" as="geometry">
                        <mxPoint x="610" y="270" as="sourcePoint"/>
                        <mxPoint x="530" y="270" as="targetPoint"/>
                        <Array as="points">
                            <mxPoint x="550" y="230"/>
                        </Array>
                    </mxGeometry>
                </mxCell>
            </root>
        </mxGraphModel>
    </diagram>
</mxfile>